<?xml version="1.0" encoding="utf-8"?>
<svg width="96px" height="40px" viewBox="0 0 96 40" version="1.1" xmlns:xlink="http://www.w3.org/1999/xlink" xmlns="http://www.w3.org/2000/svg">
  <defs>
    <path d="M-4582 1230.5L-4582 1230.5L-4582 1270.5L-4678 1270.5L-4678 1230.5L-4582 1230.5Z" id="path_1" />
    <clipPath id="clip_1">
      <use xlink:href="#path_1" clip-rule="evenodd" fill-rule="evenodd" />
    </clipPath>
  </defs>
  <g id="Frame" clip-path="url(#clip_1)">
    <path d="M-4582 1230.5L-4582 1230.5L-4582 1270.5L-4678 1270.5L-4678 1230.5L-4582 1230.5Z" id="Frame" fill="none" stroke="none" />
    <g id="cercle-Copy" fill-opacity="1" transform="translate(13 10)">
      <path d="M20 0L20 0L20 20L0 20L0 0L20 0Z" id="cercle-Copy" fill="none" stroke="none" />
      <path d="M0 10C0 4.47715 4.47715 0 10 0C15.5228 0 20 4.47715 20 10C20 15.5228 15.5228 20 10 20C4.47715 20 0 15.5228 0 10Z" id="Oval" fill="#179DE3" fill-rule="evenodd" stroke="none" />
    </g>
    <g id="cercle-Copy" fill-opacity="1" transform="translate(38 10)">
      <path d="M20 0L20 0L20 20L0 20L0 0L20 0Z" id="cercle-Copy" fill="none" stroke="none" />
      <path d="M0 10C0 4.47715 4.47715 0 10 0C15.5228 0 20 4.47715 20 10C20 15.5228 15.5228 20 10 20C4.47715 20 0 15.5228 0 10Z" id="Oval" fill="#179DE3" fill-opacity="0.6" fill-rule="evenodd" stroke="none" />
    </g>
    <g id="cercle-Copy-2" fill-opacity="1" transform="translate(63 10)">
      <path d="M20 0L20 0L20 20L0 20L0 0L20 0Z" id="cercle-Copy-2" fill="none" stroke="none" />
      <path d="M0 10C0 4.47715 4.47715 0 10 0C15.5228 0 20 4.47715 20 10C20 15.5228 15.5228 20 10 20C4.47715 20 0 15.5228 0 10Z" id="Oval" fill="#179DE3" fill-opacity="0.2" fill-rule="evenodd" stroke="none" />
    </g>
  </g>
</svg>